<svg xmlns="http://www.w3.org/2000/svg" width="288.861" height="115" viewBox="0 0 288.861 115">
  <g id="Group_718" data-name="Group 718" transform="translate(-9.922 -35.22)">
    <g id="Group_717" data-name="Group 717" transform="translate(9.922 37.696)">
      <g id="Group_716" data-name="Group 716">
        <path id="Path_1145" data-name="Path 1145" d="M82.159,42.809v40.8a33.764,33.764,0,0,1-4.717,17.758,32.254,32.254,0,0,1-12.96,12,41.665,41.665,0,0,1-36.956,0,31.54,31.54,0,0,1-12.883-12A33.764,33.764,0,0,1,9.925,83.608V42.967a2.324,2.324,0,0,1,.557-1.44,2.068,2.068,0,0,1,1.444-.561H29.042v42.08c0,5.758,1.521,10.158,4.563,13.358a16.37,16.37,0,0,0,12.317,4.721A16.855,16.855,0,0,0,58.4,96.405c3.038-3.2,4.559-7.6,4.559-13.358V40.967h17.2A1.853,1.853,0,0,1,82.159,42.809Z" transform="translate(-9.922 -20.089)" fill="#fff"/>
        <path id="Path_1146" data-name="Path 1146" d="M38.456,43.348a7.519,7.519,0,1,1-15.038,0H23.5a7.48,7.48,0,1,1,14.961,0Z" transform="translate(31.462 -35.829)" fill="#fff"/>
        <path id="Path_1147" data-name="Path 1147" d="M25.588,43.287a7.478,7.478,0,1,1-14.957,0,7.478,7.478,0,0,1,14.957,0Z" transform="translate(-7.749 -35.768)" fill="#fff"/>
      </g>
    </g>
    <text id="B_zar" data-name="B  zar" transform="translate(86.783 125.22)" fill="#fff" font-size="94" font-family="Calibri-Bold, Calibri" font-weight="700"><tspan x="0" y="0" xml:space="preserve">B  zar</tspan></text>
    <path id="Path_1148" data-name="Path 1148" d="M114.311,105.5c-11.012-.012-17.23-2.855-19.381-4.066A30.845,30.845,0,0,1,86.1,94.051l-.1-.122a25.835,25.835,0,0,1-5.425-15.4q-.244-9.7-.488-19.413a11.406,11.406,0,0,0-3.408-7.938c-.1-.1-.2-.187-.285-.268a13.238,13.238,0,0,0-1.541-1.2,14.538,14.538,0,0,0-4.233-1.769,32.1,32.1,0,0,0-8.458-.968,32.1,32.1,0,0,0-5.4.447,35.994,35.994,0,0,0-4.831,1.155,27.2,27.2,0,0,0-3.863,1.533,8.742,8.742,0,0,0-2.31,1.509,3.529,3.529,0,0,0-.895,1.529,8.922,8.922,0,0,0-.236,2.31,12.349,12.349,0,0,0,.142,1.98,6.611,6.611,0,0,0,.4,1.509,2.41,2.41,0,0,0,.659.939,1.391,1.391,0,0,0,.919.333,4.341,4.341,0,0,0,1.956-.663c.8-.439,1.8-.923,2.993-1.46a30.678,30.678,0,0,1,4.123-1.46,19.545,19.545,0,0,1,5.3-.659,13.119,13.119,0,0,1,3.794.468,5.429,5.429,0,0,1,2.448,1.464,5.774,5.774,0,0,1,1.322,2.472,13.472,13.472,0,0,1,.4,3.465v2.546h-4.1a50.743,50.743,0,0,0-9.849.846,21.438,21.438,0,0,0-7.092,2.615,11.692,11.692,0,0,0-4.286,4.477,13.44,13.44,0,0,0-1.44,6.388,14.535,14.535,0,0,0,1.13,5.937,11.7,11.7,0,0,0,3.18,4.266,13.881,13.881,0,0,0,4.855,2.59,20.64,20.64,0,0,0,6.153.87,17.177,17.177,0,0,0,7.373-1.553,17.477,17.477,0,0,0,1.627-.862,19.262,19.262,0,0,0,4.632-3.839,34.758,34.758,0,0,0,2.05,4.4c5.909,10.638,15.945,15.351,19.735,16.88a44.016,44.016,0,0,0,21.569,2.5c15.652-2.058,26.64-12.155,26.1-13.171C140.231,97.792,130.061,105.514,114.311,105.5ZM69.088,81a19.113,19.113,0,0,1-4.262,3.725A8.722,8.722,0,0,1,60.231,86a6.7,6.7,0,0,1-4.644-1.509,5.3,5.3,0,0,1-1.671-4.148,6.163,6.163,0,0,1,.59-2.757,5.213,5.213,0,0,1,1.862-2.05,9.391,9.391,0,0,1,3.3-1.273,24.172,24.172,0,0,1,4.9-.423h4.522Z" transform="translate(99.354 36.053)" fill="#fff" fill-rule="evenodd"/>
    <path id="Path_1149" data-name="Path 1149" d="M70.751,61.119c-.638-.671-3.77.012-5.181.317-.427.094-.529-.277-.163-.586,2.359-2.017,6.551-1.9,7.092-1.35s.321,4.766-1.858,6.974c-.333.342-.7.211-.573-.207.407-1.383,1.318-4.477.683-5.148" transform="translate(169.46 73.396)" fill="#fff" fill-rule="evenodd"/>
  </g>
</svg>
