<svg xmlns="http://www.w3.org/2000/svg" width="62.801" height="23.333" viewBox="0 0 62.801 23.333">
  <g id="Group_721" data-name="Group 721" transform="translate(-9.922 -35.805)">
    <g id="Group_717" data-name="Group 717" transform="translate(9.922 35.805)">
      <g id="Group_716" data-name="Group 716">
        <path id="Path_1145" data-name="Path 1145" d="M26.983,41.4v9.636a7.974,7.974,0,0,1-1.114,4.194,7.618,7.618,0,0,1-3.061,2.833,9.84,9.84,0,0,1-8.728,0,7.449,7.449,0,0,1-3.043-2.833,7.974,7.974,0,0,1-1.114-4.194v-9.6a.549.549,0,0,1,.132-.34.488.488,0,0,1,.341-.133h4.042V50.9a4.375,4.375,0,0,0,1.078,3.155,3.866,3.866,0,0,0,2.909,1.115,3.981,3.981,0,0,0,2.948-1.115A4.379,4.379,0,0,0,22.449,50.9V40.963h4.063A.438.438,0,0,1,26.983,41.4Z" transform="translate(-9.922 -36.032)" fill="#fff"/>
        <path id="Path_1146" data-name="Path 1146" d="M26.97,37.6a1.776,1.776,0,1,1-3.552,0h.018a1.767,1.767,0,1,1,3.533,0Z" transform="translate(-10.456 -35.829)" fill="#fff"/>
        <path id="Path_1147" data-name="Path 1147" d="M14.163,37.606a1.766,1.766,0,1,1-3.532,0,1.766,1.766,0,0,1,3.532,0Z" transform="translate(-9.95 -35.83)" fill="#fff"/>
      </g>
    </g>
    <path id="Path_21237" data-name="Path 21237" d="M10.527-3.789a3.783,3.783,0,0,1-.186,1.221,3.266,3.266,0,0,1-.513.967,3.309,3.309,0,0,1-.781.723,4.561,4.561,0,0,1-1,.5A6.181,6.181,0,0,1,6.88-.093,9.388,9.388,0,0,1,5.5,0H2.139A.8.8,0,0,1,1.6-.19a.781.781,0,0,1-.22-.62V-11.826a.781.781,0,0,1,.22-.62.8.8,0,0,1,.542-.19H5.313a8.485,8.485,0,0,1,1.968.2,3.872,3.872,0,0,1,1.357.591,2.616,2.616,0,0,1,.845,1,3.241,3.241,0,0,1,.293,1.426,3.1,3.1,0,0,1-.117.864,2.59,2.59,0,0,1-.342.737,2.542,2.542,0,0,1-.552.586,2.8,2.8,0,0,1-.747.41,3.34,3.34,0,0,1,.991.342,2.8,2.8,0,0,1,.791.63,2.932,2.932,0,0,1,.532.9A3.272,3.272,0,0,1,10.527-3.789ZM7.207-9.111a1.882,1.882,0,0,0-.117-.684,1.235,1.235,0,0,0-.352-.5,1.613,1.613,0,0,0-.591-.308,3.406,3.406,0,0,0-.952-.107H3.9v3.281H5.332a2.46,2.46,0,0,0,.889-.132,1.535,1.535,0,0,0,.552-.361A1.465,1.465,0,0,0,7.1-8.462,1.956,1.956,0,0,0,7.207-9.111ZM7.861-3.7a2,2,0,0,0-.146-.786,1.5,1.5,0,0,0-.43-.581,1.981,1.981,0,0,0-.723-.361A14.665,14.665,0,0,0,3.9-5.557v3.594H5.752a3.12,3.12,0,0,0,.9-.112,1.843,1.843,0,0,0,.635-.332,1.521,1.521,0,0,0,.42-.547A1.76,1.76,0,0,0,7.861-3.7Zm19.717,2.7a3.4,3.4,0,0,1-.029.483,1.363,1.363,0,0,1-.078.317.314.314,0,0,1-.127.161A.352.352,0,0,1,27.168,0H21.475a.49.49,0,0,1-.405-.176.924.924,0,0,1-.142-.576V-1.2a3.107,3.107,0,0,1,.015-.317A1.278,1.278,0,0,1,21-1.792a1.726,1.726,0,0,1,.117-.269,2.95,2.95,0,0,1,.19-.3L24.57-7.4H21.484q-.186,0-.3-.234a1.854,1.854,0,0,1-.112-.752,3.825,3.825,0,0,1,.024-.474,1.143,1.143,0,0,1,.073-.3.344.344,0,0,1,.127-.161.343.343,0,0,1,.186-.049h5.322a.822.822,0,0,1,.234.029.322.322,0,0,1,.161.107.549.549,0,0,1,.1.215,1.438,1.438,0,0,1,.034.342V-8.2a2.736,2.736,0,0,1-.02.347,1.961,1.961,0,0,1-.059.288,1.385,1.385,0,0,1-.112.273q-.073.137-.171.293L23.73-1.973h3.438a.366.366,0,0,1,.166.039.31.31,0,0,1,.132.146,1.035,1.035,0,0,1,.083.3A3.277,3.277,0,0,1,27.578-1.006ZM36.6-.3a.26.26,0,0,1-.1.215A.67.67,0,0,1,36.2.024a4.169,4.169,0,0,1-.62.034,4.231,4.231,0,0,1-.64-.034.55.55,0,0,1-.283-.112A.281.281,0,0,1,34.57-.3V-1a3.96,3.96,0,0,1-1.226.9,3.561,3.561,0,0,1-1.528.322A4.276,4.276,0,0,1,30.542.044a2.87,2.87,0,0,1-1.006-.537,2.417,2.417,0,0,1-.659-.884,3.007,3.007,0,0,1-.234-1.23,2.785,2.785,0,0,1,.3-1.323,2.422,2.422,0,0,1,.889-.928A4.424,4.424,0,0,1,31.3-5.4a10.5,10.5,0,0,1,2.041-.176h.85V-6.1a2.771,2.771,0,0,0-.083-.718,1.2,1.2,0,0,0-.273-.513,1.129,1.129,0,0,0-.508-.3,2.709,2.709,0,0,0-.786-.1,4.042,4.042,0,0,0-1.1.137,6.3,6.3,0,0,0-.854.3q-.371.166-.62.3a.907.907,0,0,1-.405.137.291.291,0,0,1-.19-.068.5.5,0,0,1-.137-.2,1.35,1.35,0,0,1-.083-.312,2.64,2.64,0,0,1-.029-.41,1.86,1.86,0,0,1,.049-.479.737.737,0,0,1,.186-.317,1.826,1.826,0,0,1,.479-.312,5.621,5.621,0,0,1,.8-.317,7.4,7.4,0,0,1,1-.239A6.617,6.617,0,0,1,32.754-9.6a6.678,6.678,0,0,1,1.753.2,2.956,2.956,0,0,1,1.2.615,2.391,2.391,0,0,1,.684,1.069A5,5,0,0,1,36.6-6.162Zm-2.412-3.73h-.937a5.037,5.037,0,0,0-1.016.088,1.947,1.947,0,0,0-.684.264,1.086,1.086,0,0,0-.386.425,1.282,1.282,0,0,0-.122.571,1.1,1.1,0,0,0,.347.859,1.385,1.385,0,0,0,.962.313,1.8,1.8,0,0,0,.952-.264,3.949,3.949,0,0,0,.884-.771Zm10.459-4.2q0,.352-.02.576a1.772,1.772,0,0,1-.059.352.344.344,0,0,1-.1.176.257.257,0,0,1-.161.049.539.539,0,0,1-.176-.034q-.1-.034-.22-.073t-.269-.073a1.419,1.419,0,0,0-.322-.034,1.086,1.086,0,0,0-.41.083,1.73,1.73,0,0,0-.425.259,3.154,3.154,0,0,0-.459.469,7.627,7.627,0,0,0-.513.723v5.43a.266.266,0,0,1-.059.171.431.431,0,0,1-.2.122,1.742,1.742,0,0,1-.376.073,5.943,5.943,0,0,1-.6.024,5.943,5.943,0,0,1-.6-.024,1.742,1.742,0,0,1-.376-.073.431.431,0,0,1-.2-.122.266.266,0,0,1-.059-.171V-9.043a.3.3,0,0,1,.049-.171.358.358,0,0,1,.176-.122,1.4,1.4,0,0,1,.327-.073,4.279,4.279,0,0,1,.5-.024,4.515,4.515,0,0,1,.518.024,1.174,1.174,0,0,1,.317.073.358.358,0,0,1,.161.122.3.3,0,0,1,.049.171v1.084a6.948,6.948,0,0,1,.645-.806,3.645,3.645,0,0,1,.576-.5,1.813,1.813,0,0,1,.547-.259,2.106,2.106,0,0,1,.547-.073q.127,0,.273.015a2.653,2.653,0,0,1,.3.049,2,2,0,0,1,.273.078.541.541,0,0,1,.171.093.3.3,0,0,1,.078.107.846.846,0,0,1,.044.161,2.393,2.393,0,0,1,.029.308Q44.648-8.584,44.648-8.232Z" transform="translate(28.075 54.22)" fill="#fff"/>
    <path id="Path_1148" data-name="Path 1148" d="M59.324,60.8a9.425,9.425,0,0,1-4.577-.96,7.285,7.285,0,0,1-2.085-1.744l-.024-.029a6.1,6.1,0,0,1-1.281-3.636l-.115-4.585a2.694,2.694,0,0,0-.8-1.875l-.067-.063a3.126,3.126,0,0,0-.364-.283,3.433,3.433,0,0,0-1-.418,8.38,8.38,0,0,0-3.272-.123,8.5,8.5,0,0,0-1.141.273,6.424,6.424,0,0,0-.912.362,2.065,2.065,0,0,0-.546.356.833.833,0,0,0-.211.361,2.107,2.107,0,0,0-.056.546,2.916,2.916,0,0,0,.034.468A1.562,1.562,0,0,0,43,49.8a.569.569,0,0,0,.156.222.328.328,0,0,0,.217.079,1.025,1.025,0,0,0,.462-.157c.189-.1.425-.218.707-.345a7.246,7.246,0,0,1,.974-.345,4.616,4.616,0,0,1,1.252-.156,3.1,3.1,0,0,1,.9.11,1.282,1.282,0,0,1,.578.346,1.364,1.364,0,0,1,.312.584,3.182,3.182,0,0,1,.1.818v.6h-.969a11.985,11.985,0,0,0-2.326.2,5.063,5.063,0,0,0-1.675.618,2.762,2.762,0,0,0-1.012,1.057,3.174,3.174,0,0,0-.34,1.509,3.433,3.433,0,0,0,.267,1.4,2.763,2.763,0,0,0,.751,1.007,3.278,3.278,0,0,0,1.147.612,4.875,4.875,0,0,0,1.453.206,4.057,4.057,0,0,0,1.741-.367,4.128,4.128,0,0,0,.384-.2,4.549,4.549,0,0,0,1.094-.907,8.209,8.209,0,0,0,.484,1.039A9.391,9.391,0,0,0,54.3,61.722a10.4,10.4,0,0,0,5.094.591c3.7-.486,6.292-2.871,6.165-3.111C65.446,58.978,63.044,60.8,59.324,60.8ZM48.644,55.013a4.514,4.514,0,0,1-1.007.88,2.06,2.06,0,0,1-1.085.3,1.582,1.582,0,0,1-1.1-.356,1.252,1.252,0,0,1-.395-.98,1.456,1.456,0,0,1,.139-.651,1.231,1.231,0,0,1,.44-.484,2.218,2.218,0,0,1,.779-.3,5.708,5.708,0,0,1,1.157-.1h1.068Z" transform="translate(-3.337 -3.265)" fill="#fff" fill-rule="evenodd"/>
    <path id="Path_1149" data-name="Path 1149" d="M66.5,59.619c-.151-.158-.89,0-1.224.075-.1.022-.125-.065-.038-.138a1.885,1.885,0,0,1,1.675-.319,1.864,1.864,0,0,1-.439,1.647c-.079.081-.165.05-.135-.049.1-.327.311-1.057.161-1.216" transform="translate(-4.242 -3.747)" fill="#fff" fill-rule="evenodd"/>
  </g>
</svg>
