<svg xmlns="http://www.w3.org/2000/svg" width="105.007" height="38.884" viewBox="0 0 105.007 38.884">
  <g id="Group_4141" data-name="Group 4141" transform="translate(-9.922 -36.158)">
    <g id="Group_717" data-name="Group 717" transform="translate(9.922 36.158)">
      <g id="Group_716" data-name="Group 716">
        <path id="Path_1145" data-name="Path 1145" d="M37.276,41.661V57.11a12.785,12.785,0,0,1-1.786,6.725,12.214,12.214,0,0,1-4.907,4.543,15.777,15.777,0,0,1-13.994,0,11.943,11.943,0,0,1-4.878-4.543A12.785,12.785,0,0,1,9.923,57.11V41.721a.88.88,0,0,1,.211-.545.783.783,0,0,1,.547-.213h6.481V56.9a7.015,7.015,0,0,0,1.728,5.058,6.2,6.2,0,0,0,4.664,1.788,6.382,6.382,0,0,0,4.726-1.788A7.021,7.021,0,0,0,30.006,56.9V40.964H36.52A.7.7,0,0,1,37.276,41.661Z" transform="translate(-9.922 -33.058)" fill="#019102"/>
        <path id="Path_1146" data-name="Path 1146" d="M29.112,38.676a2.847,2.847,0,1,1-5.694,0h.029a2.833,2.833,0,1,1,5.665,0Z" transform="translate(-2.637 -35.829)" fill="#019102"/>
        <path id="Path_1147" data-name="Path 1147" d="M16.295,38.665a2.832,2.832,0,1,1-5.664,0,2.832,2.832,0,0,1,5.664,0Z" transform="translate(-9.54 -35.818)" fill="#019102"/>
      </g>
    </g>
    <path id="Path_21238" data-name="Path 21238" d="M17.9-6.441a6.432,6.432,0,0,1-.315,2.075,5.552,5.552,0,0,1-.872,1.644,5.626,5.626,0,0,1-1.328,1.229,7.754,7.754,0,0,1-1.7.847,10.509,10.509,0,0,1-1.984.49A15.96,15.96,0,0,1,9.347,0H3.636a1.357,1.357,0,0,1-.921-.324,1.327,1.327,0,0,1-.374-1.054V-20.1a1.327,1.327,0,0,1,.374-1.054,1.357,1.357,0,0,1,.921-.324h5.4a14.424,14.424,0,0,1,3.345.332,6.582,6.582,0,0,1,2.308,1,4.447,4.447,0,0,1,1.436,1.7,5.509,5.509,0,0,1,.5,2.424,5.266,5.266,0,0,1-.2,1.469,4.4,4.4,0,0,1-.581,1.253,4.321,4.321,0,0,1-.938,1,4.766,4.766,0,0,1-1.27.7,5.679,5.679,0,0,1,1.685.581A4.768,4.768,0,0,1,16.66-9.953a4.984,4.984,0,0,1,.9,1.536A5.562,5.562,0,0,1,17.9-6.441Zm-5.645-9.048a3.2,3.2,0,0,0-.2-1.162,2.1,2.1,0,0,0-.6-.855,2.743,2.743,0,0,0-1-.523,5.791,5.791,0,0,0-1.619-.183H6.624v5.578h2.44a4.181,4.181,0,0,0,1.511-.224,2.61,2.61,0,0,0,.938-.614,2.491,2.491,0,0,0,.556-.913A3.324,3.324,0,0,0,12.252-15.489Zm1.112,9.2a3.4,3.4,0,0,0-.249-1.336,2.55,2.55,0,0,0-.73-.988,3.368,3.368,0,0,0-1.229-.614,7.183,7.183,0,0,0-1.942-.216H6.624v6.109H9.778a5.3,5.3,0,0,0,1.536-.191,3.134,3.134,0,0,0,1.079-.564,2.585,2.585,0,0,0,.714-.93A2.992,2.992,0,0,0,13.364-6.292ZM46.883-1.71a5.785,5.785,0,0,1-.05.822,2.317,2.317,0,0,1-.133.54.533.533,0,0,1-.216.274.6.6,0,0,1-.3.075H36.507a.833.833,0,0,1-.689-.3,1.57,1.57,0,0,1-.241-.979v-.764a5.283,5.283,0,0,1,.025-.54,2.172,2.172,0,0,1,.1-.465,2.934,2.934,0,0,1,.2-.457,5.016,5.016,0,0,1,.324-.515l5.545-8.566H36.523q-.315,0-.506-.4a3.151,3.151,0,0,1-.191-1.278,6.5,6.5,0,0,1,.042-.805,1.943,1.943,0,0,1,.125-.515.584.584,0,0,1,.216-.274.583.583,0,0,1,.315-.083h9.048a1.4,1.4,0,0,1,.4.05.548.548,0,0,1,.274.183.934.934,0,0,1,.166.365,2.444,2.444,0,0,1,.058.581v.813a4.651,4.651,0,0,1-.033.589,3.334,3.334,0,0,1-.1.49,2.355,2.355,0,0,1-.191.465q-.125.232-.291.5l-5.512,8.55h5.844a.623.623,0,0,1,.282.066.527.527,0,0,1,.224.249,1.759,1.759,0,0,1,.141.506A5.571,5.571,0,0,1,46.883-1.71Zm15.34,1.2a.442.442,0,0,1-.166.365,1.138,1.138,0,0,1-.523.191A7.088,7.088,0,0,1,60.479.1,7.193,7.193,0,0,1,59.392.042a.936.936,0,0,1-.481-.191.477.477,0,0,1-.141-.365V-1.693A6.732,6.732,0,0,1,56.686-.166a6.053,6.053,0,0,1-2.6.548A7.269,7.269,0,0,1,51.921.075a4.879,4.879,0,0,1-1.71-.913,4.109,4.109,0,0,1-1.121-1.5,5.111,5.111,0,0,1-.4-2.092,4.735,4.735,0,0,1,.506-2.25,4.118,4.118,0,0,1,1.511-1.577,7.521,7.521,0,0,1,2.5-.921,17.853,17.853,0,0,1,3.47-.3h1.444v-.9a4.71,4.71,0,0,0-.141-1.22,2.034,2.034,0,0,0-.465-.872,1.919,1.919,0,0,0-.863-.515,4.605,4.605,0,0,0-1.336-.166,6.871,6.871,0,0,0-1.868.232A10.711,10.711,0,0,0,52-12.4q-.631.282-1.054.515a1.542,1.542,0,0,1-.689.232.5.5,0,0,1-.324-.116A.847.847,0,0,1,49.7-12.1a2.294,2.294,0,0,1-.141-.531,4.488,4.488,0,0,1-.05-.7,3.162,3.162,0,0,1,.083-.813,1.253,1.253,0,0,1,.315-.54,3.1,3.1,0,0,1,.813-.531,9.556,9.556,0,0,1,1.361-.54,12.587,12.587,0,0,1,1.7-.407,11.249,11.249,0,0,1,1.9-.158,11.352,11.352,0,0,1,2.98.34A5.025,5.025,0,0,1,60.7-14.933a4.064,4.064,0,0,1,1.162,1.818,8.494,8.494,0,0,1,.365,2.64Zm-4.1-6.342H56.528a8.564,8.564,0,0,0-1.727.149,3.311,3.311,0,0,0-1.162.448,1.847,1.847,0,0,0-.656.722,2.179,2.179,0,0,0-.208.971A1.867,1.867,0,0,0,53.366-3.1,2.355,2.355,0,0,0,55-2.573a3.062,3.062,0,0,0,1.619-.448,6.714,6.714,0,0,0,1.5-1.312ZM75.9-14q0,.6-.033.979a3.012,3.012,0,0,1-.1.6.585.585,0,0,1-.174.3.436.436,0,0,1-.274.083.916.916,0,0,1-.3-.058q-.166-.058-.374-.125t-.457-.125a2.412,2.412,0,0,0-.548-.058,1.846,1.846,0,0,0-.7.141,2.941,2.941,0,0,0-.722.44,5.362,5.362,0,0,0-.78.8,12.966,12.966,0,0,0-.872,1.229v9.23a.451.451,0,0,1-.1.291.732.732,0,0,1-.34.208,2.962,2.962,0,0,1-.639.125A10.1,10.1,0,0,1,68.481.1,10.1,10.1,0,0,1,67.469.058a2.962,2.962,0,0,1-.639-.125.732.732,0,0,1-.34-.208.451.451,0,0,1-.1-.291V-15.373a.511.511,0,0,1,.083-.291.608.608,0,0,1,.3-.208A2.384,2.384,0,0,1,67.328-16a7.274,7.274,0,0,1,.855-.042,7.675,7.675,0,0,1,.88.042,2,2,0,0,1,.54.125.609.609,0,0,1,.274.208.511.511,0,0,1,.083.291v1.843a11.812,11.812,0,0,1,1.1-1.37,6.2,6.2,0,0,1,.979-.855,3.082,3.082,0,0,1,.93-.44,3.58,3.58,0,0,1,.93-.125q.216,0,.465.025a4.511,4.511,0,0,1,.515.083,3.408,3.408,0,0,1,.465.133.92.92,0,0,1,.291.158.515.515,0,0,1,.133.183,1.438,1.438,0,0,1,.075.274,4.068,4.068,0,0,1,.05.523Q75.9-14.593,75.9-14Z" transform="translate(39.027 67.22)" fill="#019102"/>
    <path id="Path_1148" data-name="Path 1148" d="M69.582,69.138a15.111,15.111,0,0,1-7.339-1.54A11.68,11.68,0,0,1,58.9,64.8l-.038-.046a9.783,9.783,0,0,1-2.054-5.83l-.185-7.351a4.319,4.319,0,0,0-1.29-3.006c-.038-.037-.074-.071-.108-.1a5.011,5.011,0,0,0-.584-.454,5.5,5.5,0,0,0-1.6-.67,13.436,13.436,0,0,0-5.246-.2,13.629,13.629,0,0,0-1.829.437,10.3,10.3,0,0,0-1.463.581,3.31,3.31,0,0,0-.875.571,1.336,1.336,0,0,0-.339.579,3.379,3.379,0,0,0-.089.875,4.677,4.677,0,0,0,.054.75,2.5,2.5,0,0,0,.151.571.912.912,0,0,0,.249.356.527.527,0,0,0,.348.126,1.644,1.644,0,0,0,.741-.251c.3-.166.682-.35,1.133-.553a11.616,11.616,0,0,1,1.561-.553,7.4,7.4,0,0,1,2.008-.249,4.968,4.968,0,0,1,1.437.177,2.056,2.056,0,0,1,.927.554,2.186,2.186,0,0,1,.5.936,5.1,5.1,0,0,1,.152,1.312v.964H50.905a19.214,19.214,0,0,0-3.729.32,8.118,8.118,0,0,0-2.685.99,4.427,4.427,0,0,0-1.623,1.7,5.089,5.089,0,0,0-.545,2.419A5.5,5.5,0,0,0,42.75,62a4.43,4.43,0,0,0,1.2,1.615,5.256,5.256,0,0,0,1.839.981,7.816,7.816,0,0,0,2.33.33,6.5,6.5,0,0,0,2.792-.588,6.618,6.618,0,0,0,.616-.326,7.294,7.294,0,0,0,1.754-1.454,13.162,13.162,0,0,0,.776,1.666,15.057,15.057,0,0,0,7.473,6.392,16.667,16.667,0,0,0,8.167.947c5.927-.779,10.088-4.6,9.884-4.988C79.4,66.219,75.546,69.143,69.582,69.138ZM52.457,59.861a7.237,7.237,0,0,1-1.614,1.41,3.3,3.3,0,0,1-1.74.482,2.536,2.536,0,0,1-1.759-.571,2.007,2.007,0,0,1-.633-1.571,2.334,2.334,0,0,1,.223-1.044,1.974,1.974,0,0,1,.705-.776,3.556,3.556,0,0,1,1.249-.482,9.153,9.153,0,0,1,1.856-.16h1.712Z" transform="translate(15.23 3.333)" fill="#019102" fill-rule="evenodd"/>
    <path id="Path_1149" data-name="Path 1149" d="M67.292,59.9c-.242-.254-1.427,0-1.962.12-.162.035-.2-.1-.062-.222a3.021,3.021,0,0,1,2.685-.511,2.989,2.989,0,0,1-.7,2.641c-.126.129-.265.08-.217-.079.154-.524.5-1.7.259-1.949" transform="translate(27.572 9.907)" fill="#019102" fill-rule="evenodd"/>
  </g>
</svg>
