<svg id="Group_4163" data-name="Group 4163" xmlns="http://www.w3.org/2000/svg" xmlns:xlink="http://www.w3.org/1999/xlink" width="323" height="142.147" viewBox="0 0 323 142.147">
  <defs>
    <filter id="Path_4001" x="103.995" y="36.013" width="49.365" height="49.365" filterUnits="userSpaceOnUse">
      <feOffset dy="3" input="SourceAlpha"/>
      <feGaussianBlur stdDeviation="3" result="blur"/>
      <feFlood flood-opacity="0.161"/>
      <feComposite operator="in" in2="blur"/>
      <feComposite in="SourceGraphic"/>
    </filter>
  </defs>
  <path id="Path_3994" data-name="Path 3994" d="M286.242,452.085c-1.11,8.7-5.194,16.66-9.55,24.328-.144.261-.292.518-.444.779H230.973c-.916-.238-1.82-.5-2.72-.779a49.49,49.49,0,0,1-14.3-7.033c-16.657-12-23.066-34.677-20.171-55,1.8-12.624,7.34-25.513,18.129-32.312a27.219,27.219,0,0,1,19.571-3.429c.172.031.343.07.518.105,5.642,1.27,10.668,4.426,13.528,9.511,5.143,9.137,2.081,20.455-.448,30.625s-3.889,22.341,3.429,29.841a18.666,18.666,0,0,1,21.706-24.262c.53.113,1.052.242,1.566.4a17.369,17.369,0,0,1,3.573,1.5C283.99,431.178,287.484,442.278,286.242,452.085Z" transform="translate(-190.148 -335.046)" fill="rgba(1,145,2,0.34)"/>
  <path id="Path_3995" data-name="Path 3995" d="M298.874,477.233c1.255.292,2.513.549,3.779.779h-6.846c-.9-.242-1.788-.5-2.673-.779q-2.916-.912-5.743-2.092A51.524,51.524,0,0,1,267.6,460.873a40.276,40.276,0,0,1-6.242-10.2,46.313,46.313,0,0,1-3.195-13.049c-.955-9.2.019-18.644,1.839-27.675a115.506,115.506,0,0,1,9.024-27.067q.742-1.549,1.535-3.078a.6.6,0,0,1,.4-.343.693.693,0,0,1,.518.105.821.821,0,0,1,.323,1.083,114.178,114.178,0,0,0-9.577,26.089,100.423,100.423,0,0,0-2.848,27.157c.382,8.486,2.6,16.832,7.629,23.771A47.959,47.959,0,0,0,284.965,472.4,65.9,65.9,0,0,0,298.874,477.233Z" transform="translate(-229.626 -335.866)" fill="#fff"/>
  <path id="Path_3996" data-name="Path 3996" d="M382.327,549.812h-2.018c-.226-.257-.444-.518-.658-.779a43.019,43.019,0,0,1-9.055-19.349,41.976,41.976,0,0,1,3.62-26.124,42.963,42.963,0,0,1,3.912-6.476c.53.113,1.052.242,1.566.4a40.6,40.6,0,0,0,1.936,51.551C381.855,549.294,382.089,549.555,382.327,549.812Z" transform="translate(-298.054 -407.665)" fill="#fff"/>
  <path id="Path_3997" data-name="Path 3997" d="M868.328,584.82a17.849,17.849,0,0,0,2.521,6.421c.038.069.077.137.117.206h11.949c.242-.063.48-.132.718-.206a13.069,13.069,0,0,0,3.773-1.856c4.4-3.167,6.087-9.152,5.323-14.514-.475-3.332-1.937-6.733-4.785-8.528a7.184,7.184,0,0,0-5.165-.9l-.137.028a5.33,5.33,0,0,0-3.57,2.51c-1.357,2.411-.549,5.4.118,8.082s1.026,5.9-.9,7.876a4.926,4.926,0,0,0-5.729-6.4c-.14.03-.278.064-.414.1a4.586,4.586,0,0,0-.943.395C868.923,579.3,868,582.231,868.328,584.82Z" transform="translate(-602.241 -449.299)" fill="rgba(1,145,2,0.34)"/>
  <path id="Path_3998" data-name="Path 3998" d="M885.05,591.46q-.5.116-1,.206h1.807c.237-.064.472-.132.705-.206q.77-.241,1.516-.552a13.6,13.6,0,0,0,5.223-3.766,10.623,10.623,0,0,0,1.647-2.691,12.218,12.218,0,0,0,.843-3.444,24.5,24.5,0,0,0-.485-7.3,30.49,30.49,0,0,0-2.382-7.144q-.2-.409-.405-.812a.158.158,0,0,0-.106-.091.182.182,0,0,0-.137.028.216.216,0,0,0-.085.286,30.136,30.136,0,0,1,2.527,6.885,26.5,26.5,0,0,1,.752,7.167,11.436,11.436,0,0,1-2.013,6.274,12.657,12.657,0,0,1-4.738,3.888A17.389,17.389,0,0,1,885.05,591.46Z" transform="translate(-611.879 -449.518)" fill="#fff"/>
  <path id="Path_3999" data-name="Path 3999" d="M876.437,610.615h.533c.06-.068.117-.137.174-.206a11.354,11.354,0,0,0,2.39-5.106,11.08,11.08,0,0,0-.955-6.895,11.346,11.346,0,0,0-1.032-1.709c-.14.03-.278.064-.413.1a10.716,10.716,0,0,1-.511,13.605Q876.531,610.512,876.437,610.615Z" transform="translate(-607.23 -468.468)" fill="#fff"/>
  <path id="Path_4000" data-name="Path 4000" d="M532.8,456.488H495.4l-.4-11.5a3.452,3.452,0,0,1,3.869-3.545l21.762,2.665h0A12.192,12.192,0,0,1,532.8,456.293Z" transform="translate(-374.414 -373.689)" fill="#019102"/>
  <g transform="matrix(1, 0, 0, 1, 0, 0)" filter="url(#Path_4001)">
    <path id="Path_4001-2" data-name="Path 4001" d="M504.234,375.414H478.151a2.641,2.641,0,0,0-2.641,2.641v26.083a2.64,2.64,0,0,0,2.641,2.641h26.082a2.641,2.641,0,0,0,2.641-2.641V378.055A2.641,2.641,0,0,0,504.234,375.414Z" transform="translate(-362.51 -333.4)" fill="#fff"/>
  </g>
  <path id="Path_4002" data-name="Path 4002" d="M508.143,409.145l-12.315,2.4a2.809,2.809,0,0,1-3.291-2.218l-.946-4.861a2.809,2.809,0,0,1,2.218-3.291l12.315-2.4a2.809,2.809,0,0,1,3.291,2.218l.947,4.861A2.809,2.809,0,0,1,508.143,409.145Z" transform="translate(-372.298 -347.628)" fill="#019102"/>
  <path id="Path_4003" data-name="Path 4003" d="M511.876,408.682l-9.4,1.83a.66.66,0,1,1-.252-1.3l9.4-1.83a.66.66,0,0,1,.252,1.3Z" transform="translate(-378.495 -352.908)" fill="#fff"/>
  <path id="Path_4004" data-name="Path 4004" d="M514.3,415.638l-4.861.947a.66.66,0,1,1-.252-1.3l4.861-.947a.66.66,0,1,1,.252,1.3Z" transform="translate(-382.741 -357.154)" fill="#fff"/>
  <path id="Path_4005" data-name="Path 4005" d="M506.875,378.055v3.467H475.51v-3.467a2.641,2.641,0,0,1,2.641-2.641h26.082A2.641,2.641,0,0,1,506.875,378.055Z" transform="translate(-362.515 -333.401)" fill="rgba(1,145,2,0.54)"/>
  <path id="Path_4006" data-name="Path 4006" d="M648.8,369.824a4.186,4.186,0,0,0-5.92-2.48l-35.883-12.874-1.58,8.964,35.769,9.836a4.208,4.208,0,0,0,7.614-3.446Z" transform="translate(-441.805 -320.617)" fill="#ffb8b8"/>
  <path id="Path_4007" data-name="Path 4007" d="M648.8,369.824a4.186,4.186,0,0,0-5.92-2.48l-35.883-12.874-1.58,8.964,35.769,9.836a4.208,4.208,0,0,0,7.614-3.446Z" transform="translate(-441.805 -320.617)" opacity="0.2"/>
  <path id="Path_4008" data-name="Path 4008" d="M598.194,351l-3.389,8.852a1.877,1.877,0,0,1-2.673.965l-8.235-4.635a5.212,5.212,0,1,1,3.755-9.724l9.2,2.04a1.877,1.877,0,0,1,1.346,2.5Z" transform="translate(-426.635 -315.51)" fill="#019102"/>
  <path id="Path_4009" data-name="Path 4009" d="M703.868,414.914l-12.858,5.844,1.688,6.355a98.861,98.861,0,0,1,2.548,37.657h0l9.4,1.963,7.792-19.871-2.727-22.6Z" transform="translate(-494.05 -357.511)" fill="#019102"/>
  <path id="Path_4010" data-name="Path 4010" d="M764.217,490.414c-8.448,0-15.332,6.141-15.666,13.832h31.333C779.55,496.555,772.665,490.414,764.217,490.414Z" transform="translate(-529.172 -403.594)" fill="#3f3d56"/>
  <path id="Path_4011" data-name="Path 4011" d="M570.392,444.315c-.44-34.715-20.211-31.521-20.211-31.521s.37,10.806.547,11.142c12.6,23.837-8.194,51.783-34.661,46.642q-.749-.145-1.438-.3a13.474,13.474,0,0,1-10.584-15.1c2.607-20.937-10.36-20.566-10.36-20.566H474.723l-9.847-8.862a2.863,2.863,0,0,0-4.6,1.138l-1.267,3.439s-18.7,1.948-17.143,20.26h5.782a11.67,11.67,0,0,0,.062,1.559l43.151-.351a4.723,4.723,0,0,1,4.773,4.559,4.579,4.579,0,0,1-4.732,4.6l-6.957-.232c-2.143,9.546,3.117,15.975,8.913,20.017a32.4,32.4,0,0,0,18.553,5.7h18.9c24.546,0,28.832-20.65,28.832-20.65C572,460.328,570.392,444.315,570.392,444.315Z" transform="translate(-341.922 -356.17)" fill="#65617d"/>
  <circle id="Ellipse_78" data-name="Ellipse 78" cx="21.916" cy="21.916" r="21.916" transform="translate(211.96 97.73)" fill="#65617d"/>
  <circle id="Ellipse_79" data-name="Ellipse 79" cx="5.372" cy="5.372" r="5.372" transform="translate(228.505 114.274)" fill="#fff"/>
  <circle id="Ellipse_80" data-name="Ellipse 80" cx="25.228" cy="25.228" r="25.228" transform="translate(97.995 91.106)" fill="#3f3d56"/>
  <circle id="Ellipse_81" data-name="Ellipse 81" cx="6.183" cy="6.183" r="6.183" transform="translate(117.04 110.151)" fill="#fff"/>
  <path id="Path_4012" data-name="Path 4012" d="M683.342,395.419l-4.626-12.565a5.314,5.314,0,0,1,3.151-6.823l13.263-4.883a9.35,9.35,0,1,1,6.462,17.548Z" transform="translate(-486.345 -330.445)" fill="#3f3d56"/>
  <path id="Path_4013" data-name="Path 4013" d="M734.143,380.232a9.176,9.176,0,0,1-3.429,7.146,11.684,11.684,0,0,1-7.676-16.091,9.158,9.158,0,0,1,11.1,8.946Z" transform="translate(-512.972 -330.754)" fill="#019102"/>
  <ellipse id="Ellipse_82" data-name="Ellipse 82" cx="5.455" cy="6.624" rx="5.455" ry="6.624" transform="translate(97.8 83.703)" fill="#019102"/>
  <path id="Path_4014" data-name="Path 4014" d="M450.07,272.6h4.777l2.273-12.389h-7.05Z" transform="translate(-274.71 -158.824)" fill="#ffb8b8"/>
  <path id="Path_4015" data-name="Path 4015" d="M632.444,555.587h9.408a6,6,0,0,1,5.995,6v.195h-15.4Z" transform="translate(-458.303 -443.374)" fill="#2f2e41"/>
  <path id="Path_4016" data-name="Path 4016" d="M599.241,475.875q-.084,0-.168-.008l-6.611-.481a1.753,1.753,0,0,1-1.484-2.349l8.847-19.877a1.363,1.363,0,0,0-.076-1.091,1.344,1.344,0,0,0-.862-.686c-4.16-1.087-14.834-3.983-24.074-7.371-3.959-1.452-6.452-3.549-7.41-6.235a8.8,8.8,0,0,1,.686-6.9l.063-.106,8.694.79,9.426.8,20.655,11.076a7.826,7.826,0,0,1,3.436,10.046l-9.522,21.354A1.752,1.752,0,0,1,599.241,475.875Z" transform="translate(-418.337 -367.188)" fill="#2f2e41"/>
  <circle id="Ellipse_83" data-name="Ellipse 83" cx="9.57" cy="9.57" r="9.57" transform="translate(150.452 5.906)" fill="#ffb8b8"/>
  <path id="Path_4017" data-name="Path 4017" d="M443.07,275.6h4.777l2.273-12.389h-7.05Z" transform="translate(-270.438 -160.655)" fill="#ffb8b8"/>
  <path id="Path_4018" data-name="Path 4018" d="M625.444,558.587h9.408a6,6,0,0,1,5.995,6v.195h-15.4Z" transform="translate(-454.03 -445.205)" fill="#2f2e41"/>
  <path id="Path_4019" data-name="Path 4019" d="M592.241,478.875q-.084,0-.168-.008l-6.611-.481a1.753,1.753,0,0,1-1.484-2.349l8.847-19.877a1.363,1.363,0,0,0-.077-1.091,1.344,1.344,0,0,0-.862-.686c-4.16-1.087-14.834-3.983-24.073-7.371-3.959-1.452-6.452-3.549-7.41-6.235a8.8,8.8,0,0,1,.686-6.9l.063-.106,8.694.79,9.426.8,20.655,11.076a7.826,7.826,0,0,1,3.436,10.046l-9.522,21.354A1.752,1.752,0,0,1,592.241,478.875Z" transform="translate(-414.065 -369.019)" fill="#2f2e41"/>
  <path id="Path_4020" data-name="Path 4020" d="M579.06,340.3l-10.13-3.507s-6.36,4.886-3.3,17.007a30.007,30.007,0,0,1-1.325,18.827,19.441,19.441,0,0,1-1.02,2.155s11.3,13.637,21.819,3.507l-4.091-19.676S587.437,345.561,579.06,340.3Z" transform="translate(-416.087 -309.829)" fill="#019102"/>
  <path id="Path_4021" data-name="Path 4021" d="M575.281,292.956c-1.362-2.039-2.437-4.865-.937-6.805,1.48-1.915,4.4-1.633,6.667-2.48a7.548,7.548,0,0,0,4.418-8.212,9.743,9.743,0,0,0-6.415-7.2,13.888,13.888,0,0,0-9.87.537,15.072,15.072,0,0,0-8.493,8.6,11.588,11.588,0,0,0,2.217,11.622c3.064,3.225,7.873,4.085,12.321,4.033" transform="translate(-414.071 -267.585)" fill="#2f2e41"/>
  <path id="Path_4022" data-name="Path 4022" d="M507.068,279.9c-1.716,1.4-4.335.777-6.177-.45s-3.337-2.972-5.331-3.934c-3.514-1.695-7.763-.568-11.183,1.309s-6.452,4.471-10.065,5.944-8.223,1.546-10.958-1.236a10.026,10.026,0,0,0,14.693,11.833c3.958-2.411,6.145-7.467,10.584-8.8,2.457-.736,5.095-.143,7.578.5s5.072,1.337,7.578.79,4.85-2.8,4.531-5.344Z" transform="translate(-354.76 -271.919)" fill="#2f2e41"/>
  <path id="Path_4023" data-name="Path 4023" d="M646.859,377.087a4.186,4.186,0,0,0-6.18-1.731l-37.2-8.349-.462,9.091,36.709,5.348a4.208,4.208,0,0,0,7.131-4.359Z" transform="translate(-440.343 -328.27)" fill="#ffb8b8"/>
  <path id="Path_4024" data-name="Path 4024" d="M593.533,363.881l-2.27,9.2a1.877,1.877,0,0,1-2.534,1.287l-8.744-3.584a5.212,5.212,0,0,1,2.527-10.113l9.377.889a1.877,1.877,0,0,1,1.644,2.318Z" transform="translate(-423.872 -324.309)" fill="#019102"/>
  <circle id="Ellipse_84" data-name="Ellipse 84" cx="2.727" cy="2.727" r="2.727" transform="translate(199.492 50.585)" fill="#6c63ff"/>
  <path id="Path_4025" data-name="Path 4025" d="M508.5,630.8a.391.391,0,0,1-.39.39H185.89a.39.39,0,1,1,0-.779H508.11A.391.391,0,0,1,508.5,630.8Z" transform="translate(-185.5 -489.046)" fill="#3f3d56"/>
</svg>
