<svg id="Group_4164" data-name="Group 4164" xmlns="http://www.w3.org/2000/svg" width="323" height="276.507" viewBox="0 0 323 276.507">
  <path id="Path_4026" data-name="Path 4026" d="M292.526,144.542h-1.5V103.329a23.853,23.853,0,0,0-23.853-23.853H179.853A23.853,23.853,0,0,0,156,103.329v226.1a23.853,23.853,0,0,0,23.853,23.853h87.316a23.853,23.853,0,0,0,23.853-23.853V173.878h1.5Z" transform="translate(-156 -79.476)" fill="#e6e6e6" opacity="0.57"/>
  <path id="Path_4027" data-name="Path 4027" d="M279.189,96.108h-11.4a8.463,8.463,0,0,1-7.836,11.659H209.934A8.463,8.463,0,0,1,202.1,96.108H191.453a17.813,17.813,0,0,0-17.813,17.813V339.688A17.813,17.813,0,0,0,191.453,357.5h87.736A17.813,17.813,0,0,0,297,339.688V113.921a17.813,17.813,0,0,0-17.813-17.813Z" transform="translate(-167.058 -89.902)" fill="rgba(1,145,2,0.22)" stroke="#006d01" stroke-width="1" opacity="0.57"/>
  <path id="Path_4028" data-name="Path 4028" d="M259.7,219.111h-5.238a.7.7,0,0,0-.694.695v2.3a.7.7,0,0,0,.694.695h.868v3.445h3.5V222.8h.868a.7.7,0,0,0,.695-.695v-2.3A.7.7,0,0,0,259.7,219.111Z" transform="translate(-217.29 -167.009)" fill="#019102" opacity="0.57"/>
  <path id="Path_4029" data-name="Path 4029" d="M256.85,246.059a26.932,26.932,0,0,1-4.685-15.967.568.568,0,0,0-.443-.567v-.993h-5.532v.98h-.076a.568.568,0,0,0-.567.568c0,.014,0,.028,0,.041a24.578,24.578,0,0,1-4.415,16.346,1.565,1.565,0,0,0-.283.948l.6,18.713a1.62,1.62,0,0,0,1.606,1.563h12.514a1.621,1.621,0,0,0,1.607-1.591l.233-18.169A3.279,3.279,0,0,0,256.85,246.059Z" transform="translate(-209.189 -172.915)" fill="#019102" opacity="0.57"/>
  <path id="Path_4030" data-name="Path 4030" d="M258.247,292.166H247.355a1.118,1.118,0,0,0-1.105,1.288l1.646,10.7h9.451l2-10.663a1.118,1.118,0,0,0-1.1-1.324Z" transform="translate(-212.567 -212.805)" fill="#fff" opacity="0.57"/>
  <path id="Path_4031" data-name="Path 4031" d="M415.989,369.345H410.75a.694.694,0,0,0-.695.694v2.3a.7.7,0,0,0,.695.695h.868v3.445h3.5v-3.445h.868a.7.7,0,0,0,.695-.695v-2.3A.694.694,0,0,0,415.989,369.345Z" transform="translate(-317.694 -261.186)" fill="#019102" opacity="0.57"/>
  <path id="Path_4032" data-name="Path 4032" d="M413.135,396.295a26.932,26.932,0,0,1-4.685-15.968.568.568,0,0,0-.443-.567v-.993h-5.533v.98H402.4a.568.568,0,0,0-.567.568c0,.014,0,.028,0,.041a24.579,24.579,0,0,1-4.415,16.346,1.564,1.564,0,0,0-.283.948l.6,18.713a1.62,1.62,0,0,0,1.606,1.563h12.514a1.621,1.621,0,0,0,1.607-1.591l.233-18.169A3.279,3.279,0,0,0,413.135,396.295Z" transform="translate(-309.542 -267.093)" fill="#019102" opacity="0.57"/>
  <path id="Path_4033" data-name="Path 4033" d="M414.532,442.4H403.639a1.118,1.118,0,0,0-1.105,1.288l1.646,10.7h9.451l2-10.663a1.118,1.118,0,0,0-1.1-1.324Z" transform="translate(-312.947 -306.983)" fill="#fff" opacity="0.57"/>
  <path id="Path_4034" data-name="Path 4034" d="M245.207,581.733h-2.485a.329.329,0,0,0-.329.329v1.091a.329.329,0,0,0,.329.329h.412v1.634H244.8v-1.634h.412a.329.329,0,0,0,.329-.329v-1.091A.329.329,0,0,0,245.207,581.733Z" transform="translate(-210.157 -394.326)" fill="#019102" opacity="0.57"/>
  <path id="Path_4035" data-name="Path 4035" d="M243.853,594.516a12.775,12.775,0,0,1-2.222-7.574.27.27,0,0,0-.21-.269V586.2H238.8v.465h-.036a.27.27,0,0,0-.269.27c0,.006,0,.013,0,.02a11.659,11.659,0,0,1-2.094,7.754.742.742,0,0,0-.134.45l.287,8.876a.768.768,0,0,0,.762.742h5.936a.769.769,0,0,0,.762-.755l.111-8.618A1.555,1.555,0,0,0,243.853,594.516Z" transform="translate(-206.314 -397.127)" fill="#019102" opacity="0.57"/>
  <rect id="Rectangle_2023" data-name="Rectangle 2023" width="5.664" height="2.832" transform="translate(31.021 200.651)" fill="#fff" opacity="0.57"/>
  <path id="Path_4036" data-name="Path 4036" d="M276.207,581.733h-2.485a.329.329,0,0,0-.329.329v1.091a.33.33,0,0,0,.329.329h.412v1.634H275.8v-1.634h.412a.329.329,0,0,0,.329-.329v-1.091A.329.329,0,0,0,276.207,581.733Z" transform="translate(-229.59 -394.326)" fill="#019102" opacity="0.57"/>
  <path id="Path_4037" data-name="Path 4037" d="M274.853,594.516a12.775,12.775,0,0,1-2.222-7.574.269.269,0,0,0-.21-.269V586.2H269.8v.465h-.036a.27.27,0,0,0-.269.27c0,.006,0,.013,0,.02a11.659,11.659,0,0,1-2.094,7.754.742.742,0,0,0-.134.45l.287,8.876a.768.768,0,0,0,.762.742h5.936a.769.769,0,0,0,.762-.755l.111-8.618A1.556,1.556,0,0,0,274.853,594.516Z" transform="translate(-225.747 -397.127)" fill="#019102" opacity="0.57"/>
  <rect id="Rectangle_2024" data-name="Rectangle 2024" width="5.664" height="2.832" transform="translate(42.588 200.651)" fill="#fff" opacity="0.57"/>
  <path id="Path_4038" data-name="Path 4038" d="M307.207,581.733h-2.485a.329.329,0,0,0-.329.329v1.091a.33.33,0,0,0,.329.329h.412v1.634H306.8v-1.634h.412a.33.33,0,0,0,.329-.329v-1.091A.329.329,0,0,0,307.207,581.733Z" transform="translate(-249.023 -394.326)" fill="#019102" opacity="0.57"/>
  <path id="Path_4039" data-name="Path 4039" d="M305.853,594.516a12.775,12.775,0,0,1-2.222-7.574.27.27,0,0,0-.21-.269V586.2H300.8v.465h-.036a.27.27,0,0,0-.269.27c0,.006,0,.013,0,.02a11.659,11.659,0,0,1-2.094,7.754.743.743,0,0,0-.134.45l.287,8.876a.768.768,0,0,0,.762.742h5.936a.769.769,0,0,0,.762-.755l.111-8.618A1.556,1.556,0,0,0,305.853,594.516Z" transform="translate(-245.18 -397.127)" fill="#019102" opacity="0.57"/>
  <rect id="Rectangle_2025" data-name="Rectangle 2025" width="5.664" height="2.832" transform="translate(54.155 200.651)" fill="#fff" opacity="0.57"/>
  <path id="Path_4040" data-name="Path 4040" d="M391.6,523.613h-5.238a.7.7,0,0,0-.695.695v2.3a.694.694,0,0,0,.694.694h.868v3.445h3.5V527.3h.868a.694.694,0,0,0,.694-.694v-2.3A.7.7,0,0,0,391.6,523.613Z" transform="translate(-302.172 -357.893)" fill="#019102" opacity="0.57"/>
  <path id="Path_4041" data-name="Path 4041" d="M388.745,550.563a26.932,26.932,0,0,1-4.685-15.968.568.568,0,0,0-.443-.567v-.994h-5.532v.98h-.076a.568.568,0,0,0-.567.568c0,.014,0,.028,0,.041a24.579,24.579,0,0,1-4.415,16.346,1.565,1.565,0,0,0-.283.948l.6,18.713a1.62,1.62,0,0,0,1.606,1.563h12.514a1.621,1.621,0,0,0,1.607-1.591l.233-18.169a3.279,3.279,0,0,0-.564-1.872Z" transform="translate(-294.012 -363.799)" fill="#019102" opacity="0.57"/>
  <path id="Path_4042" data-name="Path 4042" d="M390.142,596.668H379.25a1.118,1.118,0,0,0-1.105,1.288l1.646,10.7h9.451l2-10.663a1.118,1.118,0,0,0-1.1-1.324Z" transform="translate(-297.42 -403.689)" fill="#fff" opacity="0.57"/>
  <path id="Path_4043" data-name="Path 4043" d="M356.77,270.411H325.544c2.183-11.8,1.681-26.056,0-41.384H356.77C355.134,244.355,354.645,258.608,356.77,270.411Z" transform="translate(-264.04 -173.225)" fill="#019102" opacity="0.57"/>
  <circle id="Ellipse_85" data-name="Ellipse 85" cx="7.524" cy="7.524" r="7.524" transform="translate(69.653 67.841)" fill="#fff" opacity="0.57"/>
  <path id="Path_4044" data-name="Path 4044" d="M280.14,417.621H248.914c2.183-11.8,1.681-26.056,0-41.384H280.14C278.5,391.565,278.015,405.818,280.14,417.621Z" transform="translate(-214.245 -265.507)" fill="#019102" opacity="0.57"/>
  <circle id="Ellipse_86" data-name="Ellipse 86" cx="7.524" cy="7.524" r="7.524" transform="translate(42.946 122.769)" fill="#fff" opacity="0.57"/>
  <path id="Path_4045" data-name="Path 4045" d="M404.159,277.469H372.933c2.183-11.8,1.681-26.056,0-41.384h31.226C402.523,251.413,402.034,265.666,404.159,277.469Z" transform="translate(-294.238 -177.65)" fill="#e6e6e6" opacity="0.57"/>
  <circle id="Ellipse_87" data-name="Ellipse 87" cx="7.524" cy="7.524" r="7.524" transform="translate(86.869 70.475)" fill="#fff" opacity="0.57"/>
  <path id="Path_4046" data-name="Path 4046" d="M404.159,272.428H372.933c2.183-11.8,1.681-26.056,0-41.384h31.226C402.523,246.372,402.034,260.625,404.159,272.428Z" transform="translate(-294.238 -174.49)" fill="#e6e6e6" opacity="0.57"/>
  <circle id="Ellipse_88" data-name="Ellipse 88" cx="7.524" cy="7.524" r="7.524" transform="translate(86.869 68.593)" fill="#fff" opacity="0.57"/>
  <path id="Path_4047" data-name="Path 4047" d="M404.159,277.469H372.933c2.183-11.8,1.681-26.056,0-41.384h31.226C402.523,251.413,402.034,265.666,404.159,277.469Z" transform="translate(-294.238 -177.65)" fill="#019102" opacity="0.57"/>
  <circle id="Ellipse_89" data-name="Ellipse 89" cx="7.524" cy="7.524" r="7.524" transform="translate(86.869 70.475)" fill="#fff" opacity="0.57"/>
  <rect id="Rectangle_2026" data-name="Rectangle 2026" width="102.332" height="11.287" transform="translate(16.987 94.929)" fill="#019102" opacity="0.57"/>
  <rect id="Rectangle_2027" data-name="Rectangle 2027" width="102.332" height="11.287" transform="translate(16.987 150.986)" fill="#019102" opacity="0.57"/>
  <rect id="Rectangle_2028" data-name="Rectangle 2028" width="102.332" height="11.287" transform="translate(16.987 207.043)" fill="#019102" opacity="0.57"/>
  <path id="Path_4048" data-name="Path 4048" d="M910.024,670.018,884.53,651.986c8.6-8.376,16.419-20.3,23.9-33.787l25.494,18.032C923.734,647.8,915.1,659.154,910.024,670.018Z" transform="translate(-621.033 -417.186)" fill="#019102"/>
  <circle id="Ellipse_90" data-name="Ellipse 90" cx="7.524" cy="7.524" r="7.524" transform="translate(281.474 218.585)" fill="#fff"/>
  <path id="Path_4049" data-name="Path 4049" d="M617.937,536.554h-2.8a.371.371,0,0,0-.371.371v1.228a.371.371,0,0,0,.371.371h.464v1.841h1.871v-1.841h.464a.371.371,0,0,0,.371-.371v-1.228A.371.371,0,0,0,617.937,536.554Z" transform="translate(-447.942 -366.005)" fill="#e6e6e6"/>
  <path id="Path_4050" data-name="Path 4050" d="M616.412,550.951a14.388,14.388,0,0,1-2.5-8.53.3.3,0,0,0-.237-.3v-.531h-2.955v.523h-.041a.3.3,0,0,0-.3.3c0,.007,0,.015,0,.022a13.131,13.131,0,0,1-2.359,8.732.836.836,0,0,0-.151.506l.323,10a.865.865,0,0,0,.858.835h6.685a.866.866,0,0,0,.858-.85l.125-9.706A1.752,1.752,0,0,0,616.412,550.951Z" transform="translate(-443.619 -369.16)" fill="#019102"/>
  <path id="Path_4051" data-name="Path 4051" d="M619.009,537.627a.8.8,0,0,1-1.6,0" transform="translate(-449.597 -366.677)" opacity="0.2"/>
  <rect id="Rectangle_2029" data-name="Rectangle 2029" width="5.643" height="3.762" transform="translate(165.849 183.717)" fill="#fff"/>
  <path id="Path_4052" data-name="Path 4052" d="M850.635,641.218H845.4a.7.7,0,0,0-.695.694v2.3a.7.7,0,0,0,.695.694h.868v3.445h3.5v-3.445h.868a.7.7,0,0,0,.695-.694v-2.3a.7.7,0,0,0-.695-.694Z" transform="translate(-594.326 -431.616)" fill="#e6e6e6"/>
  <path id="Path_4053" data-name="Path 4053" d="M847.78,668.167a26.932,26.932,0,0,1-4.685-15.967.568.568,0,0,0-.443-.567v-.993h-5.532v.98h-.076a.568.568,0,0,0-.567.568c0,.014,0,.028,0,.041a24.579,24.579,0,0,1-4.415,16.346,1.564,1.564,0,0,0-.283.948l.6,18.713a1.62,1.62,0,0,0,1.606,1.563H846.5a1.62,1.62,0,0,0,1.607-1.591l.233-18.169A3.281,3.281,0,0,0,847.78,668.167Z" transform="translate(-586.305 -437.522)" fill="#019102"/>
  <path id="Path_4054" data-name="Path 4054" d="M852.641,643.226a1.5,1.5,0,1,1-3,0" transform="translate(-597.398 -432.875)" opacity="0.2"/>
  <path id="Path_4055" data-name="Path 4055" d="M849.177,714.273H838.285a1.118,1.118,0,0,0-1.105,1.288l1.646,10.7h9.451l2-10.663a1.118,1.118,0,0,0-1.1-1.324Z" transform="translate(-589.664 -477.412)" fill="#fff"/>
  <path id="Path_4056" data-name="Path 4056" d="M768.085,687.469H736.858c2.183-11.8,1.681-26.056,0-41.384h31.226C766.448,661.413,765.96,675.666,768.085,687.469Z" transform="translate(-526.145 -434.667)" fill="#019102"/>
  <circle id="Ellipse_91" data-name="Ellipse 91" cx="7.524" cy="7.524" r="7.524" transform="translate(219.08 223.457)" fill="#fff"/>
  <path id="Path_4057" data-name="Path 4057" d="M322.243,301.7l7.01-.637,4.461-10.833-7.966-4.461Z" transform="translate(-205.139 -179.14)" fill="#ffb8b8"/>
  <path id="Path_4058" data-name="Path 4058" d="M623.914,477.46h0a3.953,3.953,0,0,0-3.434-5.417l-10.884-.649-1.6,5.329,11.2,3.077A3.953,3.953,0,0,0,623.914,477.46Z" transform="translate(-443.804 -325.158)" fill="#ffb8b8"/>
  <path id="Path_4059" data-name="Path 4059" d="M529.269,431.484l-.12-10-24.176-3.858-18.625-21.361a6.1,6.1,0,0,0-7.946-1.086h0a6.1,6.1,0,0,0-1.062,9.3l15.365,18.909Z" transform="translate(-359.965 -276.752)" fill="#6ccc6d"/>
  <path id="Path_4060" data-name="Path 4060" d="M463.726,614.7H470.1l15.807-71.467,16.376,22.078,9.559,47.8h6.054l-1.275-51.3L495.271,507h-21.03c-5.747,10.4-10.255,21.122-5.1,32.182Z" transform="translate(-352.359 -347.48)" fill="#2f2e41"/>
  <path id="Path_4061" data-name="Path 4061" d="M582.077,794.9a1.663,1.663,0,0,0,1.3,2.134l15.594,2.767a2.565,2.565,0,0,0,2.911-1.759h0a2.55,2.55,0,0,0-1.247-3.032,23.844,23.844,0,0,1-8.6-7.477c-1.714,1.6-3.63,1.446-5.664.27l-2.158.27Z" transform="translate(-427.305 -523.337)" fill="#2f2e41"/>
  <path id="Path_4062" data-name="Path 4062" d="M455.691,794.9a1.663,1.663,0,0,0,1.3,2.134l15.594,2.767a2.566,2.566,0,0,0,2.911-1.759h0a2.55,2.55,0,0,0-1.247-3.032,23.844,23.844,0,0,1-8.6-7.477c-1.714,1.6-3.629,1.446-5.664.27l-2.158.27Z" transform="translate(-346.814 -523.337)" fill="#2f2e41"/>
  <circle id="Ellipse_92" data-name="Ellipse 92" cx="8.922" cy="8.922" r="8.922" transform="translate(119.677 97.228)" fill="#ffb8b8"/>
  <path id="Path_4063" data-name="Path 4063" d="M476.088,435.517l23.26-.637-6.831-21.5c4.245-6.806-.027-13.6-6.074-20.4l-4.78-3.186-7.647-.637h0a18.774,18.774,0,0,0-5.056,13.078A84.249,84.249,0,0,0,476.088,435.517Z" transform="translate(-355.42 -273.605)" fill="#6ccc6d"/>
  <path id="Path_4064" data-name="Path 4064" d="M607.188,533.36h0a3.953,3.953,0,0,0-1.026-6.331l-9.751-4.879-3.57,4.269,9.091,7.237A3.953,3.953,0,0,0,607.188,533.36Z" transform="translate(-434.147 -356.976)" fill="#ffb8b8"/>
  <path id="Path_4065" data-name="Path 4065" d="M536.928,456l3.823-9.24L520.042,433.7l-8.72-26.965a6.1,6.1,0,0,0-6.878-4.125h0a6.1,6.1,0,0,0-4.635,8.131l6.688,23.429Z" transform="translate(-374.967 -281.982)" fill="#6ccc6d"/>
  <path id="Path_4066" data-name="Path 4066" d="M470.13,336.711c0,3.472,2.255,8.848,5.1,11.152,1.913,1.551,4.442,1.485,5.417-.637a25.253,25.253,0,0,1,10.515-10.515c8.089-4.292-2.868-11.635-10.515-10.515C474.9,327.037,470.13,330.9,470.13,336.711Z" transform="translate(-356.098 -234.065)" fill="#2f2e41"/>
  <circle id="Ellipse_93" data-name="Ellipse 93" cx="6.373" cy="6.373" r="6.373" transform="translate(113.213 85.12)" fill="#2f2e41"/>
  <path id="Path_4067" data-name="Path 4067" d="M494.385,308a6.369,6.369,0,0,0-5.895-6.349c.158-.012.317-.024.478-.024a6.373,6.373,0,1,1,0,12.746c-.161,0-.32-.012-.478-.024A6.369,6.369,0,0,0,494.385,308Z" transform="translate(-367.617 -218.734)" fill="#2f2e41"/>
  <ellipse id="Ellipse_94" data-name="Ellipse 94" cx="1.434" cy="1.912" rx="1.434" ry="1.912" transform="translate(127.279 105.513)" fill="#ffb8b8"/>
  <path id="Path_4068" data-name="Path 4068" d="M605.669,510.517h-99.2l-21.008-99.309H467.529v-4.456h21.54l21.008,99.308h95.593Z" transform="translate(-301.419 -254.981)" fill="#3f3d56"/>
  <circle id="Ellipse_95" data-name="Ellipse 95" cx="9.549" cy="9.549" r="9.549" transform="translate(212.542 254.581)" fill="#65617d"/>
  <circle id="Ellipse_96" data-name="Ellipse 96" cx="9.549" cy="9.549" r="9.549" transform="translate(281.334 254.581)" fill="#65617d"/>
  <path id="Path_4069" data-name="Path 4069" d="M798.135,617.3H701.614l-17.03-84.16H814.116a4.576,4.576,0,0,1,4.521,5.286l-15.982,75.008a4.553,4.553,0,0,1-4.52,3.866Zm-95.472-1.273h95.472a3.285,3.285,0,0,0,3.262-2.79l15.982-75.008a3.3,3.3,0,0,0-3.263-3.815H686.13Z" transform="translate(-495.692 -363.868)" fill="#3f3d56"/>
  <path id="Path_4070" data-name="Path 4070" d="M605.776,538.455,594.623,455.3l1.256-.208,11.153,83.15Z" transform="translate(-378.553 -285.287)" fill="#3f3d56"/>
  <path id="Path_4071" data-name="Path 4071" d="M788.6,537.82l-1.257-.2L798.17,455.1l1.257.2Z" transform="translate(-501.901 -285.29)" fill="#3f3d56"/>
  <rect id="Rectangle_2030" data-name="Rectangle 2030" width="1.273" height="83.15" transform="translate(257.543 169.914)" fill="#3f3d56"/>
  <rect id="Rectangle_2031" data-name="Rectangle 2031" width="1.273" height="123.243" transform="translate(195.392 193.466) rotate(-89.861)" fill="#3f3d56"/>
  <rect id="Rectangle_2032" data-name="Rectangle 2032" width="108.274" height="1.273" transform="translate(201.672 232.264) rotate(-0.392)" fill="#3f3d56"/>
  <ellipse id="Ellipse_97" data-name="Ellipse 97" cx="7.003" cy="3.82" rx="7.003" ry="3.82" transform="translate(164.906 149.543)" fill="#3f3d56"/>
</svg>
